<svg xmlns="http://www.w3.org/2000/svg" viewBox="0 0 512 512" width="40" height="20"><path fill="white" d="M275 13l25 62c5 10 17 14 26 9l58-36c15-10 35 4 30 22l-16 66c-2 10 5 21 16 22l68 5c18 1 25 24 11 36l-51 43c-9 7-9 21 0 28l51 43c14 12 7 35-11 36l-68 5c-11 1-18 12-16 22l16 66c5 18-15 32-30 22l-58-36c-9-5-21-1-26 9l-25 62c-7 17-31 17-38 0l-25-62c-5-10-17-14-26-9l-58 36c-15 10-35-4-30-22l16-66c2-10-5-21-16-22l-68-5c-18-1-25-24-11-36l51-43c9-7 9-21 0-28l-51-43c-14-12-7-35 11-36l68-5c11-1 18-12 16-22L98 70c-5-18 15-32 30-22l58 36c9 5 21 1 26-9l25-62c7-17 31-17 38 0zm117 243a136 136 0 10-272 0 136 136 0 00272 0zm-32 0a104 104 0 11-208 0 104 104 0 01208 0z"/></svg>